HIERARCHY
ROOT mixamorig:Hips
{
	OFFSET -0.000008 104.274872 1.554316
	CHANNELS 6 Xposition Yposition Zposition Xrotation Yrotation Zrotation
	JOINT mixamorig:Spine
	{
		OFFSET -0.000005 10.181595 0.131519
		CHANNELS 6 Xposition Yposition Zposition Xrotation Yrotation Zrotation
		JOINT mixamorig:Spine1
		{
			OFFSET -0.000000 9.893959 -1.470707
			CHANNELS 6 Xposition Yposition Zposition Xrotation Yrotation Zrotation
			JOINT mixamorig:Spine2
			{
				OFFSET -0.000000 9.220757 -1.370641
				CHANNELS 6 Xposition Yposition Zposition Xrotation Yrotation Zrotation
				JOINT mixamorig:Neck
				{
					OFFSET 0.000001 16.740417 -2.049036
					CHANNELS 6 Xposition Yposition Zposition Xrotation Yrotation Zrotation
					JOINT mixamorig:Head
					{
						OFFSET 0.000000 9.617874 1.685006
						CHANNELS 6 Xposition Yposition Zposition Xrotation Yrotation Zrotation
						JOINT mixamorig:HeadTop_End
						{
							OFFSET 0.000002 22.037354 7.501101
							CHANNELS 6 Xposition Yposition Zposition Xrotation Yrotation Zrotation
							End Site
							{
								OFFSET 0.000168 2310.654297 -282.823242
							}
						}
					}
				}
				JOINT mixamorig:RightShoulder
				{
					OFFSET -4.569970 11.014908 -2.160885
					CHANNELS 6 Xposition Yposition Zposition Xrotation Yrotation Zrotation
					JOINT mixamorig:RightArm
					{
						OFFSET -10.592851 -0.524811 -2.232101
						CHANNELS 6 Xposition Yposition Zposition Xrotation Yrotation Zrotation
						JOINT mixamorig:RightForeArm
						{
							OFFSET -27.841511 0.000031 -0.000004
							CHANNELS 6 Xposition Yposition Zposition Xrotation Yrotation Zrotation
							JOINT mixamorig:RightHand
							{
								OFFSET -28.328831 -0.000015 0.000015
								CHANNELS 6 Xposition Yposition Zposition Xrotation Yrotation Zrotation
								JOINT mixamorig:RightHandThumb1
								{
									OFFSET -2.464806 -1.573990 2.681852
									CHANNELS 6 Xposition Yposition Zposition Xrotation Yrotation Zrotation
									JOINT mixamorig:RightHandThumb2
									{
										OFFSET -3.215179 -1.872803 1.924282
										CHANNELS 6 Xposition Yposition Zposition Xrotation Yrotation Zrotation
										JOINT mixamorig:RightHandThumb3
										{
											OFFSET -2.654831 -1.527969 1.512609
											CHANNELS 6 Xposition Yposition Zposition Xrotation Yrotation Zrotation
											JOINT mixamorig:RightHandThumb4
											{
												OFFSET -2.018814 -1.152008 1.108052
												CHANNELS 6 Xposition Yposition Zposition Xrotation Yrotation Zrotation
												End Site
												{
													OFFSET -188.809540 -114.533607 132.431396
												}
											}
										}
									}
								}
								JOINT mixamorig:RightHandIndex1
								{
									OFFSET -9.108284 -0.517868 2.259835
									CHANNELS 6 Xposition Yposition Zposition Xrotation Yrotation Zrotation
									JOINT mixamorig:RightHandIndex2
									{
										OFFSET -3.699989 0.000000 0.001215
										CHANNELS 6 Xposition Yposition Zposition Xrotation Yrotation Zrotation
										JOINT mixamorig:RightHandIndex3
										{
											OFFSET -2.850006 0.000031 -0.000522
											CHANNELS 6 Xposition Yposition Zposition Xrotation Yrotation Zrotation
											JOINT mixamorig:RightHandIndex4
											{
												OFFSET -2.772186 -0.000015 -0.000020
												CHANNELS 6 Xposition Yposition Zposition Xrotation Yrotation Zrotation
												End Site
												{
													OFFSET -277.218445 0.000000 -0.050231
												}
											}
										}
									}
								}
								JOINT mixamorig:RightHandMiddle1
								{
									OFFSET -9.532516 -0.000031 -0.000023
									CHANNELS 6 Xposition Yposition Zposition Xrotation Yrotation Zrotation
									JOINT mixamorig:RightHandMiddle2
									{
										OFFSET -3.700005 -0.000015 0.003713
										CHANNELS 6 Xposition Yposition Zposition Xrotation Yrotation Zrotation
										JOINT mixamorig:RightHandMiddle3
										{
											OFFSET -2.949974 0.000015 -0.002054
											CHANNELS 6 Xposition Yposition Zposition Xrotation Yrotation Zrotation
											JOINT mixamorig:RightHandMiddle4
											{
												OFFSET -2.946640 0.000000 -0.000156
												CHANNELS 6 Xposition Yposition Zposition Xrotation Yrotation Zrotation
												End Site
												{
													OFFSET -294.664337 0.000000 -0.113670
												}
											}
										}
									}
								}
								JOINT mixamorig:RightHandRing1
								{
									OFFSET -9.103600 -0.043076 -1.865134
									CHANNELS 6 Xposition Yposition Zposition Xrotation Yrotation Zrotation
									JOINT mixamorig:RightHandRing2
									{
										OFFSET -3.379288 0.000000 -0.001055
										CHANNELS 6 Xposition Yposition Zposition Xrotation Yrotation Zrotation
										JOINT mixamorig:RightHandRing3
										{
											OFFSET -2.889687 -0.000015 0.000379
											CHANNELS 6 Xposition Yposition Zposition Xrotation Yrotation Zrotation
											JOINT mixamorig:RightHandRing4
											{
												OFFSET -2.638809 -0.000015 0.000941
												CHANNELS 6 Xposition Yposition Zposition Xrotation Yrotation Zrotation
												End Site
												{
													OFFSET -263.880371 0.000000 0.516020
												}
											}
										}
									}
								}
								JOINT mixamorig:RightHandPinky1
								{
									OFFSET -8.076683 -0.486710 -3.806280
									CHANNELS 6 Xposition Yposition Zposition Xrotation Yrotation Zrotation
									JOINT mixamorig:RightHandPinky2
									{
										OFFSET -3.600014 -0.000015 -0.003747
										CHANNELS 6 Xposition Yposition Zposition Xrotation Yrotation Zrotation
										JOINT mixamorig:RightHandPinky3
										{
											OFFSET -2.099983 0.000000 -0.005739
											CHANNELS 6 Xposition Yposition Zposition Xrotation Yrotation Zrotation
											JOINT mixamorig:RightHandPinky4
											{
												OFFSET -2.115768 -0.000031 -0.003680
												CHANNELS 6 Xposition Yposition Zposition Xrotation Yrotation Zrotation
												End Site
												{
													OFFSET -211.577087 0.000000 -0.350686
												}
											}
										}
									}
								}
							}
						}
					}
				}
				JOINT mixamorig:LeftShoulder
				{
					OFFSET 4.570447 11.014725 -2.160855
					CHANNELS 6 Xposition Yposition Zposition Xrotation Yrotation Zrotation
					JOINT mixamorig:LeftArm
					{
						OFFSET 10.592371 -0.524597 -2.232119
						CHANNELS 6 Xposition Yposition Zposition Xrotation Yrotation Zrotation
						JOINT mixamorig:LeftForeArm
						{
							OFFSET 27.841532 -0.000031 0.000026
							CHANNELS 6 Xposition Yposition Zposition Xrotation Yrotation Zrotation
							JOINT mixamorig:LeftHand
							{
								OFFSET 28.328846 -0.000061 0.000022
								CHANNELS 6 Xposition Yposition Zposition Xrotation Yrotation Zrotation
								JOINT mixamorig:LeftHandThumb1
								{
									OFFSET 2.466141 -1.576172 2.681732
									CHANNELS 6 Xposition Yposition Zposition Xrotation Yrotation Zrotation
									JOINT mixamorig:LeftHandThumb2
									{
										OFFSET 3.217812 -1.872070 1.916482
										CHANNELS 6 Xposition Yposition Zposition Xrotation Yrotation Zrotation
										JOINT mixamorig:LeftHandThumb3
										{
											OFFSET 2.656029 -1.528778 1.514513
											CHANNELS 6 Xposition Yposition Zposition Xrotation Yrotation Zrotation
											JOINT mixamorig:LeftHandThumb4
											{
												OFFSET 2.020889 -1.154053 1.115139
												CHANNELS 6 Xposition Yposition Zposition Xrotation Yrotation Zrotation
												End Site
												{
													OFFSET 190.885437 -115.081749 130.048782
												}
											}
										}
									}
								}
								JOINT mixamorig:LeftHandIndex1
								{
									OFFSET 9.109314 -0.518021 2.259871
									CHANNELS 6 Xposition Yposition Zposition Xrotation Yrotation Zrotation
									JOINT mixamorig:LeftHandIndex2
									{
										OFFSET 3.699989 0.000000 -0.000322
										CHANNELS 6 Xposition Yposition Zposition Xrotation Yrotation Zrotation
										JOINT mixamorig:LeftHandIndex3
										{
											OFFSET 2.850006 0.000000 0.000352
											CHANNELS 6 Xposition Yposition Zposition Xrotation Yrotation Zrotation
											JOINT mixamorig:LeftHandIndex4
											{
												OFFSET 2.774864 -0.000031 -0.000027
												CHANNELS 6 Xposition Yposition Zposition Xrotation Yrotation Zrotation
												End Site
												{
													OFFSET 277.486267 0.000000 -0.009857
												}
											}
										}
									}
								}
								JOINT mixamorig:LeftHandMiddle1
								{
									OFFSET 9.533394 0.000061 0.000044
									CHANNELS 6 Xposition Yposition Zposition Xrotation Yrotation Zrotation
									JOINT mixamorig:LeftHandMiddle2
									{
										OFFSET 3.699989 -0.000015 -0.000231
										CHANNELS 6 Xposition Yposition Zposition Xrotation Yrotation Zrotation
										JOINT mixamorig:LeftHandMiddle3
										{
											OFFSET 2.949997 -0.000015 -0.000059
											CHANNELS 6 Xposition Yposition Zposition Xrotation Yrotation Zrotation
											JOINT mixamorig:LeftHandMiddle4
											{
												OFFSET 2.952896 0.000031 0.000063
												CHANNELS 6 Xposition Yposition Zposition Xrotation Yrotation Zrotation
												End Site
												{
													OFFSET 295.289337 0.000000 0.022810
												}
											}
										}
									}
								}
								JOINT mixamorig:LeftHandRing1
								{
									OFFSET 9.104523 -0.042999 -1.865074
									CHANNELS 6 Xposition Yposition Zposition Xrotation Yrotation Zrotation
									JOINT mixamorig:LeftHandRing2
									{
										OFFSET 3.150009 -0.000031 0.000043
										CHANNELS 6 Xposition Yposition Zposition Xrotation Yrotation Zrotation
										JOINT mixamorig:LeftHandRing3
										{
											OFFSET 2.949982 -0.000015 0.000040
											CHANNELS 6 Xposition Yposition Zposition Xrotation Yrotation Zrotation
											JOINT mixamorig:LeftHandRing4
											{
												OFFSET 2.644348 0.000000 0.000057
												CHANNELS 6 Xposition Yposition Zposition Xrotation Yrotation Zrotation
												End Site
												{
													OFFSET 264.434631 0.000000 0.012105
												}
											}
										}
									}
								}
								JOINT mixamorig:LeftHandPinky1
								{
									OFFSET 8.077789 -0.486847 -3.806259
									CHANNELS 6 Xposition Yposition Zposition Xrotation Yrotation Zrotation
									JOINT mixamorig:LeftHandPinky2
									{
										OFFSET 3.599953 0.000031 0.014727
										CHANNELS 6 Xposition Yposition Zposition Xrotation Yrotation Zrotation
										JOINT mixamorig:LeftHandPinky3
										{
											OFFSET 2.100021 0.000015 0.007705
											CHANNELS 6 Xposition Yposition Zposition Xrotation Yrotation Zrotation
											JOINT mixamorig:LeftHandPinky4
											{
												OFFSET 2.125504 0.000031 0.007517
												CHANNELS 6 Xposition Yposition Zposition Xrotation Yrotation Zrotation
												End Site
												{
													OFFSET 212.550781 0.000000 0.625752
												}
											}
										}
									}
								}
							}
						}
					}
				}
			}
		}
	}
	JOINT mixamorig:RightUpLeg
	{
		OFFSET -8.207787 -6.751648 -1.599560
		CHANNELS 6 Xposition Yposition Zposition Xrotation Yrotation Zrotation
		JOINT mixamorig:RightLeg
		{
			OFFSET -0.000002 -44.370117 0.345942
			CHANNELS 6 Xposition Yposition Zposition Xrotation Yrotation Zrotation
			JOINT mixamorig:RightFoot
			{
				OFFSET 0.000003 -44.423679 -3.043532
				CHANNELS 6 Xposition Yposition Zposition Xrotation Yrotation Zrotation
				JOINT mixamorig:RightToeBase
				{
					OFFSET -0.000002 -8.728671 10.710558
					CHANNELS 6 Xposition Yposition Zposition Xrotation Yrotation Zrotation
					JOINT mixamorig:RightToe_End
					{
						OFFSET -0.000001 -0.000679 9.278119
						CHANNELS 6 Xposition Yposition Zposition Xrotation Yrotation Zrotation
						End Site
						{
							OFFSET 0.000000 -0.067690 927.812134
						}
					}
				}
			}
		}
	}
	JOINT mixamorig:LeftUpLeg
	{
		OFFSET 8.207793 -6.751686 -1.599556
		CHANNELS 6 Xposition Yposition Zposition Xrotation Yrotation Zrotation
		JOINT mixamorig:LeftLeg
		{
			OFFSET -0.000004 -44.370014 0.346954
			CHANNELS 6 Xposition Yposition Zposition Xrotation Yrotation Zrotation
			JOINT mixamorig:LeftFoot
			{
				OFFSET -0.000001 -44.423672 -3.044401
				CHANNELS 6 Xposition Yposition Zposition Xrotation Yrotation Zrotation
				JOINT mixamorig:LeftToeBase
				{
					OFFSET -0.000002 -8.728669 10.710558
					CHANNELS 6 Xposition Yposition Zposition Xrotation Yrotation Zrotation
					JOINT mixamorig:LeftToe_End
					{
						OFFSET -0.000003 -0.000679 9.278133
						CHANNELS 6 Xposition Yposition Zposition Xrotation Yrotation Zrotation
						End Site
						{
							OFFSET 0.000000 -0.068021 927.813477
						}
					}
				}
			}
		}
	}
}
MOTION
Frames: 3
Frame Time: 0.033333
0.000006 104.270477 1.554256 0.000010 0.000003 -0.000113 -0.000005 10.181587 0.131522 0.000001 -0.000003 0.000084 -0.000000 9.893967 -1.470711 0.000001 0.000000 -0.000000 -0.000000 9.220802 -1.370642 0.000000 -0.000000 -0.000000 0.000001 16.740433 -2.049030 0.000000 -0.000000 -0.000000 0.000000 9.617859 1.685014 0.000000 0.000000 0.000000 0.000002 22.037384 7.501101 0.000000 -0.000000 0.000000 -4.569968 11.014880 -2.160881 0.000008 0.000001 -0.000038 -10.592869 -0.524783 -2.231874 73.094273 35.478759 -26.679214 -27.841499 0.000022 0.000563 -46.021415 113.110576 65.481351 -28.328814 0.000010 0.000029 -0.000322 -0.000043 0.000004 -2.464487 -1.573649 2.682264 -55.250718 -179.835507 -36.694320 -3.215281 -1.872551 1.924648 151.661195 31.539157 6.010400 -2.654970 -1.527875 1.513062 145.620125 27.648008 -31.704061 -2.018831 -1.151998 1.108062 -0.000002 -0.000002 0.000004 -9.108377 -0.517555 2.260151 102.049249 15.412698 -19.046720 -3.700068 0.000308 0.001532 100.338757 13.845101 -16.535951 -2.850099 0.000358 -0.000251 98.767466 12.270694 -14.287568 -2.772184 -0.000000 -0.000019 -0.000000 -0.000002 -0.000001 -9.532585 0.000259 0.000199 86.204849 16.185516 -15.293704 -3.700049 0.000328 0.003951 87.728705 11.526484 -10.990747 -2.950057 0.000336 -0.001820 89.501617 12.191744 -12.079852 -2.946630 -0.000000 -0.000156 -0.000003 0.000000 0.000002 -9.103708 -0.042772 -1.864918 80.753224 18.918584 -16.089103 -3.379320 0.000303 -0.000850 84.468669 8.220806 -7.480896 -2.889753 0.000341 0.000618 88.924377 7.227971 -7.138760 -2.638793 -0.000016 0.000939 -0.000003 0.000003 0.000003 -8.076761 -0.486415 -3.806099 68.618683 20.724684 -14.115108 -3.600039 0.000240 -0.003595 71.601126 10.238017 -7.128283 -2.100027 0.000295 -0.005576 74.603240 5.942340 -4.360161 -2.115766 -0.000042 -0.003678 -0.000002 -0.000004 -0.000001 4.570446 11.014691 -2.160851 -0.000018 0.000010 -0.000021 10.592436 -0.524605 -2.232292 -13.738810 -65.788423 -8.910818 27.841743 -0.000036 -0.000096 238.010427 -73.913145 252.773990 28.328840 -0.000045 0.000021 0.000022 -0.000089 -0.000001 2.465824 -1.576049 2.681819 -60.360205 -188.451968 47.703233 3.217475 -1.871922 1.916554 -52.067806 169.370837 28.432081 2.655702 -1.528475 1.514541 -50.309859 201.201868 -284.816484 2.020906 -1.154055 1.115134 0.000003 -0.000001 -0.000001 9.109455 -0.517825 2.259844 145.881038 -17.810799 54.059964 3.700141 0.000184 -0.000370 144.712297 -19.480470 56.764654 2.850132 0.000252 0.000324 144.156279 -16.123884 47.299326 2.774885 -0.000045 -0.000021 0.000004 0.000000 0.000001 9.533518 0.000287 -0.000009 133.090307 -17.528808 39.103537 3.700108 0.000231 -0.000311 128.433470 -17.125552 34.619114 2.950103 0.000278 -0.000147 124.168919 -14.524841 27.054292 2.952873 -0.000016 0.000071 -0.000002 -0.000002 0.000000 9.104635 -0.042787 -1.865199 114.101356 -18.280159 27.884731 3.150073 0.000248 -0.000057 110.543531 -12.251817 17.605757 2.950026 0.000263 -0.000073 112.152840 -7.555592 11.216771 2.644318 0.000029 0.000052 -0.000005 0.000000 -0.000000 8.077868 -0.486677 -3.806375 104.853376 -18.421305 24.571930 3.599994 0.000247 0.014575 97.713595 -7.276766 8.867466 2.100015 0.000273 0.007512 97.090975 -3.123214 4.020411 2.125504 -0.000014 0.007511 0.000004 -0.000000 0.000000 -8.207786 -6.751667 -1.599560 -0.077001 -0.000003 0.000080 -0.000002 -44.370110 0.345938 0.153719 -0.000000 -0.000000 0.000000 -44.423679 -3.043532 -0.076700 0.000000 -0.000002 -0.000006 -8.728667 10.710559 -0.000009 -0.000000 -0.000000 -0.000001 -0.000679 9.278123 0.000000 -0.000000 -0.000000 8.207792 -6.751710 -1.599556 -0.074518 -0.000003 0.000081 -0.000002 -44.370014 0.346960 0.148822 0.000002 0.000000 -0.000001 -44.423664 -3.044403 -0.074314 0.000000 -0.000002 -0.000004 -8.728671 10.710558 0.000007 -0.000000 -0.000000 0.000000 -0.000680 9.278137 -0.000000 0.000000 -0.000001 
0.000006 104.270477 1.554256 0.000010 0.000003 -0.000113 -0.000005 10.181587 0.131522 0.000001 -0.000003 0.000084 -0.000000 9.893967 -1.470711 0.000001 0.000000 -0.000000 -0.000000 9.220802 -1.370642 0.000000 -0.000000 -0.000000 0.000001 16.740433 -2.049030 0.000000 -0.000000 -0.000000 0.000000 9.617859 1.685014 0.000000 0.000000 0.000000 0.000002 22.037384 7.501101 0.000000 -0.000000 0.000000 -4.569968 11.014880 -2.160881 0.000008 0.000001 -0.000038 -10.592867 -0.524786 -2.231880 72.833995 34.331574 -25.674751 -27.841518 0.000007 0.000545 -45.864211 114.647293 66.818327 -28.328812 -0.000007 0.000026 -0.000322 -0.000045 0.000006 -2.464452 -1.573674 2.682296 -53.808845 -175.986039 -29.317501 -3.215259 -1.872564 1.924637 151.811828 31.881571 8.266458 -2.654965 -1.527863 1.513075 145.691418 27.576312 -32.437873 -2.018826 -1.152016 1.108066 0.000002 -0.000005 -0.000001 -9.108371 -0.517552 2.260135 101.728066 15.857112 -19.481163 -3.700069 0.000309 0.001525 100.250798 14.506301 -17.296643 -2.850120 0.000365 -0.000238 99.021214 12.980713 -15.179001 -2.772165 -0.000015 -0.000018 -0.000000 0.000001 0.000001 -9.532581 0.000259 0.000218 86.048356 16.604058 -15.644603 -3.700056 0.000327 0.003943 87.754229 12.064616 -11.512916 -2.950068 0.000333 -0.001844 90.252439 12.812596 -12.861461 -2.946623 0.000001 -0.000155 -0.000000 -0.000001 -0.000001 -9.103701 -0.042770 -1.864913 80.785879 19.393438 -16.505241 -3.379340 0.000304 -0.000850 84.305530 8.579366 -7.784543 -2.889766 0.000338 0.000608 88.611234 7.716566 -7.577221 -2.638807 -0.000019 0.000938 0.000001 0.000003 0.000002 -8.076752 -0.486424 -3.806083 68.241137 21.727064 -14.707134 -3.600024 0.000238 -0.003596 70.494874 10.991980 -7.516713 -2.100023 0.000291 -0.005573 73.066584 6.454586 -4.618809 -2.115766 -0.000041 -0.003677 0.000000 -0.000001 -0.000004 4.570446 11.014691 -2.160851 -0.000018 0.000010 -0.000021 10.592435 -0.524609 -2.232291 -13.593767 -65.365996 -8.745405 27.841734 -0.000067 -0.000092 237.039803 -73.368082 252.218477 28.328833 0.000004 0.000022 0.000020 -0.000089 -0.000001 2.465846 -1.576041 2.681866 -55.916727 -189.212523 34.292184 3.217510 -1.871968 1.916593 -45.460322 169.551018 9.220054 2.656121 -1.528554 1.514484 -6.632725 199.253420 -137.314506 2.020883 -1.154055 1.115150 0.000003 0.000002 0.000003 9.109440 -0.517913 2.259885 155.924340 -24.640167 91.322327 3.700119 0.000067 -0.000321 153.442167 -25.408732 87.438695 2.850151 0.000192 0.000336 149.689497 -19.667455 65.230362 2.774880 -0.000029 -0.000034 0.000001 0.000001 -0.000000 9.533517 0.000186 0.000048 153.757476 -21.669865 78.743776 3.700146 0.000140 -0.000228 150.570195 -21.780290 72.441362 2.950130 0.000214 -0.000093 144.099206 -17.484553 50.794225 2.952873 -0.000030 0.000065 0.000001 -0.000001 0.000000 9.104651 -0.042791 -1.865151 128.218374 -22.284534 44.177264 3.150080 0.000251 -0.000067 115.810461 -13.391283 21.207160 2.950012 0.000255 -0.000071 114.301699 -6.985763 10.803281 2.644318 0.000044 0.000062 -0.000003 0.000001 -0.000000 8.077875 -0.486648 -3.806371 116.266117 -20.588123 33.532090 3.599993 0.000279 0.014591 103.754631 -5.108626 7.093974 2.100008 0.000286 0.007522 101.004250 -0.320484 0.885194 2.125497 -0.000015 0.007517 0.000002 0.000001 -0.000000 -8.207786 -6.751667 -1.599560 -0.077001 -0.000003 0.000080 -0.000002 -44.370110 0.345938 0.153719 -0.000000 -0.000000 0.000000 -44.423679 -3.043532 -0.076700 0.000000 -0.000002 -0.000006 -8.728667 10.710559 -0.000009 -0.000000 -0.000000 -0.000001 -0.000679 9.278123 0.000000 -0.000000 -0.000000 8.207792 -6.751710 -1.599556 -0.074518 -0.000003 0.000081 -0.000002 -44.370014 0.346960 0.148822 0.000002 0.000000 -0.000001 -44.423664 -3.044403 -0.074314 0.000000 -0.000002 -0.000004 -8.728671 10.710558 0.000007 -0.000000 -0.000000 0.000000 -0.000680 9.278137 -0.000000 0.000000 -0.000001 
0.000006 104.270477 1.554256 0.000010 0.000003 -0.000113 -0.000005 10.181587 0.131522 0.000001 -0.000003 0.000084 -0.000000 9.893967 -1.470711 0.000001 0.000000 -0.000000 -0.000000 9.220802 -1.370642 0.000000 -0.000000 -0.000000 0.000001 16.740433 -2.049030 0.000000 -0.000000 -0.000000 0.000000 9.617859 1.685014 0.000000 0.000000 0.000000 0.000002 22.037384 7.501101 0.000000 -0.000000 0.000000 -4.569968 11.014880 -2.160881 0.000008 0.000001 -0.000038 -10.592876 -0.524755 -2.231928 72.737799 25.937164 -19.250670 -27.841492 -0.000004 0.000567 -45.751100 118.398051 70.577048 -28.328835 0.000021 0.000030 -0.000321 -0.000045 0.000006 -2.464457 -1.573696 2.682307 -53.170174 -175.141555 -26.813226 -3.215268 -1.872569 1.924635 152.642215 31.953339 7.848581 -2.654950 -1.527864 1.513062 146.445744 27.346908 -33.658971 -2.018830 -1.152013 1.108063 0.000001 -0.000003 0.000000 -9.108375 -0.517554 2.260136 102.064364 16.620492 -20.530420 -3.700090 0.000286 0.001538 100.636581 15.698941 -18.839619 -2.850092 0.000357 -0.000233 99.391198 13.952212 -16.416705 -2.772171 -0.000001 -0.000019 -0.000000 0.000001 0.000000 -9.532594 0.000269 0.000208 85.441029 17.273579 -16.102333 -3.700073 0.000326 0.003946 87.736621 12.744994 -12.163280 -2.950055 0.000324 -0.001808 90.865852 13.189484 -13.381179 -2.946613 -0.000000 -0.000155 -0.000001 0.000000 -0.000002 -9.103699 -0.042771 -1.864908 79.821716 19.622346 -16.422626 -3.379332 0.000309 -0.000870 84.278462 8.449525 -7.663233 -2.889756 0.000339 0.000600 89.348150 7.570505 -7.530516 -2.638805 -0.000028 0.000940 -0.000001 0.000000 0.000001 -8.076763 -0.486423 -3.806099 67.481852 21.747759 -14.514362 -3.600057 0.000243 -0.003602 70.626540 10.645978 -7.290068 -2.100020 0.000292 -0.005566 73.454347 6.150019 -4.424772 -2.115776 -0.000056 -0.003689 0.000000 0.000000 -0.000003 4.570446 11.014691 -2.160851 -0.000018 0.000010 -0.000021 10.592424 -0.524601 -2.232282 -13.645232 -62.044311 -8.230829 27.841738 -0.000054 -0.000081 237.607309 -72.337830 253.894742 28.328833 -0.000030 0.000021 0.000021 -0.000089 0.000003 2.465916 -1.576110 2.681875 -50.552856 -210.197391 16.557830 3.217706 -1.872058 1.916561 -13.473188 141.106859 -43.335829 2.655879 -1.528835 1.514653 -20.359401 155.738791 -39.447532 2.020887 -1.154084 1.115141 0.000001 0.000003 0.000004 9.109432 -0.517933 2.259885 157.253631 -21.939343 87.826643 3.700075 0.000152 -0.000447 97.992362 -21.512478 24.672190 2.850046 0.000146 0.000237 68.892409 -15.957697 10.981975 2.774890 -0.000046 -0.000022 -0.000000 0.000001 -0.000001 9.533516 0.000328 -0.000013 137.047568 -15.097503 37.207397 3.700039 0.000188 -0.000407 87.918065 -8.664324 8.353723 2.950041 0.000117 -0.000191 60.314204 -9.158759 5.330543 2.952873 -0.000015 0.000065 -0.000000 -0.000000 -0.000000 9.104633 -0.042747 -1.865143 133.001186 -14.579322 32.792520 3.149991 0.000243 -0.000132 86.804546 3.713223 -3.510479 2.949961 0.000145 -0.000149 58.436571 10.052334 -5.631554 2.644317 0.000030 0.000046 0.000000 0.000001 0.000000 8.077880 -0.486576 -3.806351 129.916646 -12.067833 26.714635 3.599917 0.000283 0.014529 93.032285 7.980788 -8.032579 2.099939 0.000134 0.007501 60.099518 20.168932 -11.618755 2.125508 -0.000019 0.007487 0.000001 -0.000003 0.000002 -8.207786 -6.751667 -1.599560 -0.077001 -0.000003 0.000080 -0.000002 -44.370110 0.345938 0.153719 -0.000000 -0.000000 0.000000 -44.423679 -3.043532 -0.076700 0.000000 -0.000002 -0.000006 -8.728667 10.710559 -0.000009 -0.000000 -0.000000 -0.000001 -0.000679 9.278123 0.000000 -0.000000 -0.000000 8.207792 -6.751710 -1.599556 -0.074518 -0.000003 0.000081 -0.000002 -44.370014 0.346960 0.148822 0.000002 0.000000 -0.000001 -44.423664 -3.044403 -0.074314 0.000000 -0.000002 -0.000004 -8.728671 10.710558 0.000007 -0.000000 -0.000000 0.000000 -0.000680 9.278137 -0.000000 0.000000 -0.000001 
